<svg xmlns="http://www.w3.org/2000/svg" viewBox="0 0 512 512" width="512" height="512">
  <!-- Rounded square background #4C566A -->
  <rect width="512" height="512" rx="96" ry="96" fill="#4C566A"/>

  <!-- Centered original VA text -->
  <g transform="translate(73, 49)" stroke-linecap="round" fill-rule="nonzero" fill="#81a1c1" stroke="#81a1c1" stroke-width="0.7">
    <path d="M71.250 88.875L35.250 88.875L35.250 78.375L71.250 78.375L71.250 88.875ZM194.250 88.875L158.250 88.875L158.250 78.375L194.250 78.375L194.250 88.875ZM225 88.875L189 88.875L189 78.375L225 78.375L225 88.875Z" />
    <path d="M28.125 167.250L16.875 167.250L16.875 96.750L28.125 96.750L28.125 167.250ZM89.625 167.250L78.375 167.250L78.375 96.750L89.625 96.750L89.625 167.250ZM138.375 167.250L126.750 167.250L152.625 96.750L164.250 96.750L138.375 167.250ZM199.875 167.250L188.250 167.250L214.125 96.750L225.750 96.750L199.875 167.250ZM255.750 171.375L219.750 171.375L219.750 160.875L255.750 160.875L255.750 171.375ZM286.500 171.375L250.500 171.375L250.500 160.875L286.500 160.875L286.500 171.375ZM348 171.375L312 171.375L312 160.875L348 160.875L348 171.375Z" />
    <path d="M28.125 249.750L16.875 249.750L16.875 179.250L28.125 179.250L28.125 249.750ZM89.625 249.750L78.375 249.750L78.375 179.250L89.625 179.250L89.625 249.750ZM107.625 249.750L96 249.750L121.875 179.250L133.500 179.250L107.625 249.750ZM169.125 249.750L157.500 249.750L183.375 179.250L195 179.250L169.125 249.750ZM255.750 253.875L219.750 253.875L219.750 243.375L255.750 243.375L255.750 253.875ZM277.500 193.125L266.025 193.125L257.250 182.625L269.625 182.625L277.500 193.125ZM322.875 249.750L311.250 249.750L337.125 179.250L348.750 179.250L322.875 249.750Z" />
    <path d="M28.125 332.250L16.875 332.250L16.875 261.750L28.125 261.750L28.125 332.250ZM71.250 336.375L35.250 336.375L35.250 325.875L71.250 325.875L71.250 336.375ZM102 336.375L66 336.375L66 325.875L102 325.875L102 336.375ZM132.750 336.375L96.750 336.375L96.750 325.875L132.750 325.875L132.750 336.375ZM138.375 332.250L126.750 332.250L152.625 261.750L164.250 261.750L138.375 332.250ZM194.925 332.250L183.300 332.250L157.425 261.750L169.050 261.750L194.925 332.250ZM225 336.375L189 336.375L189 325.875L225 325.875L225 336.375ZM235.500 336L225.750 336L231.750 312.675L245.250 312.675L235.500 336ZM286.500 336.375L250.500 336.375L250.500 325.875L286.500 325.875L286.500 336.375ZM292.125 332.250L280.500 332.250L306.375 261.750L318 261.750L292.125 332.250Z" />
  </g>
</svg>
